<?xml version="1.0" encoding="utf-8"?>
<!-- Generator: Adobe Illustrator 25.4.1, SVG Export Plug-In . SVG Version: 6.00 Build 0)  -->
<svg version="1.1" id="Camada_1" xmlns="http://www.w3.org/2000/svg" xmlns:xlink="http://www.w3.org/1999/xlink" x="0px" y="0px"
	 viewBox="0 0 1366 768" style="enable-background:new 0 0 1366 768;" xml:space="preserve">
<style type="text/css">
	.st0{fill-rule:evenodd;clip-rule:evenodd;fill:#FFFFFF;}
	.st1{fill:#5C068C;}
	.st2{fill:none;stroke:#FFAB56;stroke-opacity:0.2;}
	.st3{opacity:0.46;fill-rule:evenodd;clip-rule:evenodd;fill:url(#SVGID_1_);enable-background:new    ;}
	
		.st4{opacity:0.46;fill-rule:evenodd;clip-rule:evenodd;fill:url(#SVGID_00000128448537952758298670000004172190694490930098_);enable-background:new    ;}
	.st5{fill-rule:evenodd;clip-rule:evenodd;fill:#FFBF7D;}
	
		.st6{opacity:0.6;fill-rule:evenodd;clip-rule:evenodd;fill:url(#SVGID_00000165211458839542435860000001643920607162348710_);enable-background:new    ;}
	.st7{opacity:0.6;}
	.st8{fill-rule:evenodd;clip-rule:evenodd;fill:#530C85;}
	
		.st9{opacity:0.8;fill-rule:evenodd;clip-rule:evenodd;fill:url(#SVGID_00000090268595325608611840000017586016640990200752_);enable-background:new    ;}
	
		.st10{opacity:0.6;fill-rule:evenodd;clip-rule:evenodd;fill:url(#SVGID_00000040542101751439618970000003405806923768856727_);enable-background:new    ;}
	.st11{fill-rule:evenodd;clip-rule:evenodd;}
	.st12{fill-rule:evenodd;clip-rule:evenodd;fill:#A5AAAA;}
	.st13{fill:#FFFFFF;}
	.st14{fill:none;stroke:#FFFFFF;}
</style>
<path class="st0" d="M1366.5,25.7l-3.2-4.1l3.2-0.5L1366.5,25.7z"/>
<rect x="0.5" y="-0.1" class="st1" width="1366" height="768"/>
<path class="st2" d="M821.5,30.9l109,77v55l29,42l68-12l50-42"/>
<linearGradient id="SVGID_1_" gradientUnits="userSpaceOnUse" x1="944.5901" y1="642.2745" x2="781.5801" y2="411.3056" gradientTransform="matrix(1 0 0 -1 287 848)">
	<stop  offset="0" style="stop-color:#000000"/>
	<stop  offset="0.5156" style="stop-color:#3F0D6F"/>
	<stop  offset="0.691" style="stop-color:#5C068C"/>
	<stop  offset="1" style="stop-color:#9F6CBB"/>
</linearGradient>
<path class="st3" d="M1019.1,266.2c-33.9-99.2,2.5-203.6,83.3-266.3h264.1v422.8c-4.4,1.5-8.8,3-13.3,4.3
	C1213.4,468.7,1063.8,396.7,1019.1,266.2z"/>
<linearGradient id="SVGID_00000072253716583931474660000004011385514152633502_" gradientUnits="userSpaceOnUse" x1="1043.1597" y1="589.2266" x2="971.9796" y2="521.2516" gradientTransform="matrix(1 0 0 -1 287 848)">
	<stop  offset="0" style="stop-color:#000000"/>
	<stop  offset="0.53" style="stop-color:#482570"/>
	<stop  offset="1" style="stop-color:#E2DAF8"/>
</linearGradient>
<path style="opacity:0.46;fill-rule:evenodd;clip-rule:evenodd;fill:url(#SVGID_00000072253716583931474660000004011385514152633502_);enable-background:new    ;" d="
	M1328.7,188.4c13.8,0,26.7,3.8,37.7,10.5v124.8c-11,6.6-23.9,10.5-37.7,10.5c-40.3,0-73-32.6-73-72.9
	C1255.8,221,1288.4,188.4,1328.7,188.4z"/>
<path class="st5" d="M688.2,105.6l-7.2,0.1l3.6-4L688.2,105.6z"/>
<path class="st5" d="M1234,732.9l-7.1,2.4l2.2-5.1L1234,732.9z"/>
<path class="st5" d="M499.6,115.3l-3.6-3.2l3.5-0.4L499.6,115.3z"/>
<path class="st0" d="M690.1,215l-4,1.3l1.3-2.9L690.1,215z"/>
<path class="st0" d="M788.2,490.4l-7.6,2.6l2.4-5.4L788.2,490.4z"/>
<path class="st0" d="M21,140.3l-7.2,2.4l2.3-5.1L21,140.3z"/>
<path class="st0" d="M21,432.8l-7.2,2.4l2.3-5.1L21,432.8z"/>
<path class="st0" d="M261.8,394.8l-7.1,2.4l2.2-5.1L261.8,394.8z"/>
<path class="st0" d="M196.2,544.7l-6-5.3l5.9-0.6L196.2,544.7z"/>
<path class="st0" d="M687.3,610.1l-6-5.3l5.9-0.6L687.3,610.1z"/>
<path class="st0" d="M823.5,33.1l-6-5.3l5.9-0.6L823.5,33.1z"/>
<path class="st0" d="M37.6,9.9l-4.3-3.8l4.2-0.4L37.6,9.9z"/>
<path class="st0" d="M132.7,144.9l-3.3-0.6l2-1.5L132.7,144.9z"/>
<path class="st0" d="M66.6,262l-3.3-0.6l2-1.5L66.6,262z"/>
<path class="st0" d="M134.8,204.6l-3.3-0.6l2-1.5L134.8,204.6z"/>
<path class="st0" d="M289.4,192.9l-3.3-0.6l2-1.5L289.4,192.9z"/>
<path class="st0" d="M36.8,77.8l-3.3-0.6l2-1.5L36.8,77.8z"/>
<path class="st0" d="M10.2,210.9l-3.3-0.6l2-1.5L10.2,210.9z"/>
<path class="st0" d="M387.4,110.8l-3.3-0.6l2-1.5L387.4,110.8z"/>
<path class="st0" d="M276.6,12.9l-3.3-0.6l2-1.5L276.6,12.9z"/>
<path class="st0" d="M202,73.6l-3.3-0.6l2-1.5L202,73.6z"/>
<path class="st0" d="M123.1,23.5l-3.3-0.6l2-1.5L123.1,23.5z"/>
<path class="st5" d="M540.9,21.4l-3.3-0.6l2-1.5L540.9,21.4z"/>
<path class="st0" d="M555.8,148.1l-3.3-0.6l2-1.5L555.8,148.1z"/>
<path class="st0" d="M408.7,176.8l-3.3-0.6l2-1.5L408.7,176.8z"/>
<path class="st0" d="M569.6,206.7l-3.3-0.6l2-1.5L569.6,206.7z"/>
<path class="st0" d="M646.3,280.2l-3.3-0.6l2-1.5L646.3,280.2z"/>
<path class="st0" d="M788.1,363.2l-3.3-0.6l2-1.5L788.1,363.2z"/>
<path class="st0" d="M736.9,415.4l-3.3-0.6l1.9-1.5L736.9,415.4z"/>
<path class="st0" d="M765.7,200.3l-3.3-0.6l2-1.5L765.7,200.3z"/>
<path class="st0" d="M744.4,290.8l-3.3-0.6l2-1.5L744.4,290.8z"/>
<path class="st0" d="M701.7,338.7l-3.3-0.6l2-1.5L701.7,338.7z"/>
<path class="st0" d="M657,163l-3.3-0.6l2-1.5L657,163z"/>
<path class="st0" d="M768.9,79.9l-3.3-0.6l2-1.5L768.9,79.9z"/>
<path class="st0" d="M765.7,10.7l-3.3-0.6l2-1.5L765.7,10.7z"/>
<path class="st0" d="M614.4,37.3l-3.3-0.6l2-1.5L614.4,37.3z"/>
<path class="st0" d="M596.3,94.9l-3.3-0.6l2-1.5L596.3,94.9z"/>
<path class="st0" d="M3.8,329.2l-3.3-0.6l2-1.5L3.8,329.2z"/>
<path class="st0" d="M92.2,513.4l-3.3-0.6l2-1.5L92.2,513.4z"/>
<path class="st0" d="M158.3,592.2l-3.3-0.6l2-1.5L158.3,592.2z"/>
<path class="st0" d="M475.8,208.8l-3.3-0.6l2-1.5L475.8,208.8z"/>
<path class="st5" d="M264.8,486.5l-6.5,2.2l2-4.7L264.8,486.5z"/>
<path class="st5" d="M84.9,586.4l-7.1,2.4l2.2-5.1L84.9,586.4z"/>
<path class="st5" d="M194.5,542.8l-3.3-0.6l2-1.5L194.5,542.8z"/>
<path class="st5" d="M1180.6,556.6l-7.1,2.4l2.3-5.1L1180.6,556.6z"/>
<path class="st5" d="M1282.9,586.2l-7.1,2.4l2.2-5.1L1282.9,586.2z"/>
<path class="st5" d="M1293.7,82.2l-3.9,0.1l1.9-3.1L1293.7,82.2z"/>
<path class="st5" d="M1192.1,89.8l-1.9-2.5l1.9-0.3L1192.1,89.8z"/>
<path class="st0" d="M1294.7,167.4l-2.1,1l0.7-2.2L1294.7,167.4z"/>
<path class="st0" d="M1347.5,381.7l-4.1,2l1.3-4.2L1347.5,381.7z"/>
<path class="st0" d="M958.6,448.3l-4.1,2l1.3-4.2L958.6,448.3z"/>
<path class="st0" d="M927.9,301.6l-4.1,2l1.3-4.2L927.9,301.6z"/>
<path class="st0" d="M986.8,326.3l-4.1,2l1.3-4.3L986.8,326.3z"/>
<path class="st0" d="M934.5,109.2l-3.9,1.9l1.2-4L934.5,109.2z"/>
<path class="st0" d="M1161,1.8l-3.5,1.7l1.1-3.6L1161,1.8z"/>
<path class="st0" d="M1064.1,79.7l-3.8,1.9l1.2-4L1064.1,79.7z"/>
<path class="st0" d="M1028.8,196.4l-3.2-4.1l3.2-0.5L1028.8,196.4z"/>
<path class="st0" d="M1293.2,474.9l-3.3-4.1l3.2-0.5L1293.2,474.9z"/>
<path class="st0" d="M943.5,7.7l-2.3-2.9l2.3-0.3L943.5,7.7z"/>
<path class="st0" d="M994.7,112.8l-1.8-0.5l1.1-1.2L994.7,112.8z"/>
<path class="st0" d="M959.1,204l-1.8-0.5l1.1-1.2L959.1,204z"/>
<path class="st0" d="M995.8,159.2l-1.8-0.5l1.1-1.1L995.8,159.2z"/>
<path class="st0" d="M1079,150.1l-1.8-0.5l1.1-1.1L1079,150.1z"/>
<path class="st0" d="M943,60.6l-1.8-0.5l1.1-1.1L943,60.6z"/>
<path class="st0" d="M928.7,164.2l-1.8-0.5l1.1-1.2L928.7,164.2z"/>
<path class="st0" d="M1131.7,86.2l-1.8-0.5l1.1-1.2L1131.7,86.2z"/>
<path class="st0" d="M1072.1,10l-1.8-0.5l1.1-1.1L1072.1,10z"/>
<path class="st0" d="M1031.9,57.3l-1.8-0.5l1.1-1.1L1031.9,57.3z"/>
<path class="st0" d="M989.5,18.3l-1.8-0.5l1.1-1.1L989.5,18.3z"/>
<path class="st0" d="M1214.4,16.6l-1.8-0.5l1.1-1.2L1214.4,16.6z"/>
<path class="st0" d="M1222.4,115.3l-1.8-0.5l1.1-1.1L1222.4,115.3z"/>
<path class="st0" d="M1143.2,137.6l-1.8-0.5l1.1-1.2L1143.2,137.6z"/>
<path class="st0" d="M1229.8,160.9l-1.8-0.5l1.1-1.2L1229.8,160.9z"/>
<path class="st0" d="M1271.1,218.1l-1.8-0.5l1.1-1.2L1271.1,218.1z"/>
<path class="st0" d="M1347.4,282.7l-1.8-0.5l1.1-1.1L1347.4,282.7z"/>
<path class="st0" d="M1319.9,323.4l-1.8-0.5l1-1.2L1319.9,323.4z"/>
<path class="st0" d="M1335.4,155.9l-1.8-0.5l1.1-1.2L1335.4,155.9z"/>
<path class="st0" d="M1323.9,226.4l-1.8-0.5l1.1-1.1L1323.9,226.4z"/>
<path class="st0" d="M1301,263.7l-1.8-0.5l1.1-1.2L1301,263.7z"/>
<path class="st0" d="M1276.9,126.9l-1.8-0.5l1.1-1.1L1276.9,126.9z"/>
<path class="st0" d="M1337.1,62.2l-1.8-0.5l1.1-1.2L1337.1,62.2z"/>
<path class="st0" d="M1335.4,8.3l-1.8-0.5l1.1-1.2L1335.4,8.3z"/>
<path class="st0" d="M1253.9,29l-1.8-0.5l1.1-1.2L1253.9,29z"/>
<path class="st0" d="M1244.2,73.8l-1.8-0.5l1.1-1.2L1244.2,73.8z"/>
<path class="st5" d="M1123.1,45.6l-1.8-0.5l1.1-1.1L1123.1,45.6z"/>
<path class="st0" d="M925.3,256.2l-1.8-0.5l1.1-1.1L925.3,256.2z"/>
<path class="st0" d="M972.9,399.6l-1.8-0.5l1.1-1.2L972.9,399.6z"/>
<path class="st0" d="M1008.4,461l-1.8-0.5l1.1-1.1L1008.4,461z"/>
<path class="st0" d="M1179.4,162.5l-1.8-0.5l1.1-1.1L1179.4,162.5z"/>
<path class="st0" d="M1040.3,558.3l-6.7,0.1l3.3-3.7L1040.3,558.3z"/>
<path class="st0" d="M863.9,567.4l-3.4-3l3.3-0.3L863.9,567.4z"/>
<path class="st5" d="M1042.1,660.7l-3.7,1.3l1.2-2.7L1042.1,660.7z"/>
<path class="st0" d="M1166.9,490.4l-5.7-5l5.5-0.6L1166.9,490.4z"/>
<path class="st0" d="M1112.9,646.9l-3.1-0.6l1.9-1.4L1112.9,646.9z"/>
<path class="st0" d="M1115.8,534.3l-3.1-0.6l1.9-1.4L1115.8,534.3z"/>
<linearGradient id="SVGID_00000142169328362756919810000015911513037172817564_" gradientUnits="userSpaceOnUse" x1="-127.2493" y1="238.558" x2="-114.2493" y2="135.558" gradientTransform="matrix(1 0 0 -1 287 848)">
	<stop  offset="0.6682" style="stop-color:#260838"/>
	<stop  offset="1" style="stop-color:#260838;stop-opacity:0"/>
</linearGradient>
<path style="opacity:0.6;fill-rule:evenodd;clip-rule:evenodd;fill:url(#SVGID_00000142169328362756919810000015911513037172817564_);enable-background:new    ;" d="
	M0.5,632.1c56.6,8.3,141.6,30.5,166.9,45.4c75.7,44.6,84,63,158.1,61.3c6-0.1,22,0,22,0s10.7,17.5,8.1,20.5
	c-121.1-5.1-152.2-2.6-268.8,0c-46.7,1-51.5,0.5-86.3-5.1V632.1z"/>
<g class="st7">
	<path class="st8" d="M152.1,669.6c-0.4-0.2-0.8-0.3-1.2-0.5c0.1,0.2,0.2,0.3,0.3,0.4C151.5,669.8,151.8,669.8,152.1,669.6z
		 M94.5,651.7c-0.4-0.1-0.9-0.2-1.3-0.3c0,0,0,0,0,0.1c0.2,0.4,0.7,0.6,1,0.4C94.4,651.8,94.5,651.8,94.5,651.7z M72.7,647.2
		c-0.5-0.1-1-0.2-1.6-0.3c0,0.1,0,0.3,0,0.4c0.1,0.5,0.6,0.7,1,0.6C72.4,647.8,72.7,647.5,72.7,647.2z M64.8,645.8
		c-0.4-0.1-0.7-0.1-1.1-0.2c-0.1,0-0.1,0.1-0.2,0.2c-0.3,0.4-0.2,0.9,0.2,1.2c0.3,0.2,0.9,0.1,1.1-0.2
		C65.1,646.5,65.1,646.1,64.8,645.8z M56.9,644.6c-0.5-0.1-1-0.1-1.6-0.2c0,0.1,0,0.2,0.1,0.3c0.3,0.4,0.7,0.5,1.2,0.3
		C56.7,644.9,56.9,644.8,56.9,644.6z M40.2,642.4c-0.4,0-0.8-0.1-1.2-0.1c-0.1,0.1-0.2,0.2-0.2,0.4c-0.1,0.4,0.2,0.9,0.6,1
		c0.5,0.1,0.9-0.2,1-0.6C40.4,642.8,40.3,642.5,40.2,642.4z M26.6,641l-0.2,0c-0.3,0-0.5,0.1-0.6,0.3c-0.2,0.3-0.1,0.9,0.2,1.2
		c0.3,0.2,0.9,0.2,1.1-0.2c0.2-0.3,0.2-0.9-0.2-1.1C26.9,641.1,26.7,641,26.6,641z M113.8,657.7l1.5,0.4c0,0.1-0.1,0.1-0.2,0.1
		c-0.4,0.3-0.9,0.2-1.2-0.2C113.8,658,113.8,657.9,113.8,657.7z M133.8,663.9l1.2,0.4c0,0-0.1,0-0.1,0.1
		C134.5,664.6,134,664.4,133.8,663.9C133.8,664,133.8,663.9,133.8,663.9z M164.4,677.1c-0.5-0.1-1-0.2-1.5-0.3c0,0,0-0.1,0-0.2
		c0-0.5,0.3-0.8,0.7-0.9c0.5,0,0.9,0.3,0.9,0.8C164.5,676.8,164.5,677,164.4,677.1z M98.7,661.9l-0.5-0.1
		C98.4,661.8,98.6,661.8,98.7,661.9z M93.5,660.7l-1.5-0.3c0-0.1,0.1-0.1,0.1-0.2c0.4-0.3,0.9-0.2,1.2,0.2
		C93.5,660.5,93.5,660.6,93.5,660.7z M89.4,659.7l-1.5-0.4c0.1-0.1,0.1-0.2,0.3-0.3c0.3-0.2,0.9-0.1,1.1,0.2
		C89.3,659.4,89.4,659.6,89.4,659.7z M85.4,658.8l-1-0.2c0.1-0.1,0.3-0.1,0.5,0C85.2,658.6,85.3,658.7,85.4,658.8z M73,655.8
		l-0.6-0.1C72.7,655.7,72.9,655.7,73,655.8z M66.7,654.3l-1.3-0.3c0-0.1-0.1-0.3,0-0.4c0.1-0.5,0.5-0.8,1-0.7c0.4,0.1,0.7,0.5,0.6,1
		C66.9,654.1,66.9,654.2,66.7,654.3z M52.6,650.9l-1.4-0.3c0-0.2,0.2-0.4,0.3-0.6c-0.3,0.1-0.5-0.2-0.7-0.4
		c-0.2,0.2-0.3,0.5-0.6,0.5c-0.4-0.1-0.7-0.5-0.6-0.9c0-0.1,0.1-0.1,0.2-0.1c-0.3,0.3-0.7,0.4-1,0.2c-0.4-0.3-0.5-0.8-0.2-1.2
		c0.2-0.4,0.8-0.4,1.1-0.2c0.4,0.3,0.4,0.7,0.2,1.1c0.2-0.3,0.3-0.5,0.6-0.4c0.2,0,0.2,0.3,0.3,0.5c0.1-0.1,0.1-0.5,0.3-0.5
		c0.5-0.1,0.9,0.1,1,0.5c0.1,0.3-0.2,0.5-0.5,0.8c0.4-0.2,0.8,0,1,0.4C52.8,650.4,52.7,650.7,52.6,650.9z M47.1,649.6l-1.4-0.3
		c0-0.2,0.1-0.4,0.3-0.5c0.1,0,0.1-0.1,0.2-0.1c-0.3-0.2-0.5-0.6-0.4-0.9c0.1-0.4,0.6-0.7,0.9-0.6c0.4,0.1,0.7,0.5,0.6,0.9
		c-0.1,0.3-0.3,0.5-0.6,0.6c0.1,0.1,0.2,0.2,0.3,0.3C47.2,649.1,47.2,649.4,47.1,649.6z M34.9,646.6c-0.6-0.1-1.3-0.3-2-0.4
		c0.1-0.2,0.2-0.3,0.4-0.5c0.3-0.2,0.7-0.1,1,0.2l0,0c0,0,0.1,0,0.1,0c0,0,0,0.1,0,0.1C34.6,646.2,34.9,646.4,34.9,646.6z
		 M32.7,646.1c-0.4-0.1-0.9-0.2-1.3-0.3c0.1-0.1,0.1-0.1,0.2-0.1C32,645.5,32.4,645.6,32.7,646.1C32.6,646,32.6,646.1,32.7,646.1z
		 M141.4,667.5c-0.2,0.3-0.2,0.9,0.2,1.1c0.3,0.3,0.8,0.2,1.1-0.2c0.2-0.4,0.2-0.9-0.2-1.1C142.1,667.1,141.7,667.1,141.4,667.5z
		 M104.9,656.2c0.3-0.4,0.3-0.9-0.1-1.2c-0.4-0.3-0.8-0.2-1.2,0.2c-0.2,0.3-0.2,0.8,0.2,1.1C104.2,656.6,104.7,656.5,104.9,656.2z
		 M96.3,660.1c0,0.4,0.4,0.8,0.8,0.9c0.4,0,0.8-0.4,0.9-0.8c0-0.4-0.4-0.8-0.8-0.8C96.7,659.3,96.3,659.6,96.3,660.1z M140,670.5
		c0.4,0.1,0.8-0.2,0.9-0.6c0.1-0.5-0.1-0.9-0.6-1c-0.4-0.1-0.9,0.2-1,0.7C139.3,670,139.6,670.4,140,670.5z M106.2,657.6
		c0.4,0.1,0.8-0.2,0.9-0.6c0.1-0.5-0.2-0.9-0.6-0.9c-0.4-0.1-0.8,0.2-0.9,0.6C105.4,657.1,105.7,657.5,106.2,657.6z M100,659.6
		c0.3-0.2,0.4-0.7,0.3-1.1c-0.2-0.4-0.7-0.5-1.2-0.3c-0.3,0.2-0.5,0.7-0.3,1.1C99.1,659.6,99.6,659.8,100,659.6z M82,655.3
		c0.1,0.2,0.3,0.1,0.5,0.2c0,0.4,0.2,0.8,0.6,0.8c0.4,0.1,0.8-0.2,0.9-0.6c0.1-0.4-0.2-0.9-0.6-0.9c0-0.1,0.1-0.2,0.1-0.2
		c-0.2-0.4-0.7-0.6-1.1-0.3C81.9,654.4,81.8,654.9,82,655.3z M115.7,661.1c-0.4,0.2-0.5,0.7-0.3,1.1c0.3,0.4,0.7,0.5,1.1,0.3
		c0.4-0.2,0.5-0.7,0.3-1.1C116.6,661,116.1,660.8,115.7,661.1z M133.4,666.8c0.2,0.4,0.7,0.5,1.1,0.4c0.4-0.2,0.5-0.8,0.3-1.1
		c-0.2-0.4-0.7-0.6-1.1-0.3C133.3,666,133.2,666.4,133.4,666.8z M83.7,650.9c-0.2-0.4-0.7-0.5-1.2-0.3c-0.3,0.2-0.5,0.7-0.3,1.1
		c0.3,0.4,0.7,0.5,1.2,0.3C83.7,651.8,83.9,651.3,83.7,650.9z M92.5,652.8c0.1-0.4,0-0.9-0.5-1c-0.4-0.2-0.8,0-1,0.5
		c-0.2,0.4,0,0.9,0.4,1.1C91.9,653.4,92.3,653.2,92.5,652.8z M125.2,667.1c0.4,0.1,0.9,0,1.1-0.5c0.1-0.4,0-0.9-0.5-1
		c-0.4-0.2-0.8,0-1,0.5C124.6,666.5,124.8,667,125.2,667.1z M86.7,651.1c0.1-0.4-0.1-0.9-0.5-1c-0.4-0.1-0.8,0-1,0.5
		c-0.2,0.4,0,0.9,0.4,1C86.1,651.7,86.6,651.5,86.7,651.1z M90.7,658.4c0.4,0.1,0.9-0.2,1-0.6c0-0.2-0.2-0.3-0.3-0.5
		c0.3,0.1,0.7-0.1,0.9-0.4c0.2-0.4,0-0.9-0.4-1c-0.5-0.1-0.9,0.1-1.1,0.5c0,0.2,0.1,0.3,0.3,0.5c-0.4,0-0.8,0.1-0.9,0.5
		C90,657.8,90.3,658.3,90.7,658.4z M96.6,658.1c0.4,0.1,0.9-0.2,0.9-0.6c0.1-0.5-0.1-0.9-0.6-1c-0.4-0.1-0.9,0.2-1,0.6
		C95.9,657.6,96.1,658,96.6,658.1z M37.7,645.6c0.4,0.1,0.8-0.2,0.9-0.6c0.1-0.5-0.2-0.9-0.6-1c-0.4-0.1-0.9,0.2-1,0.7
		C37,645.1,37.3,645.6,37.7,645.6z M145.4,668.3c-0.2-0.4-0.7-0.6-1.1-0.4c-0.4,0.2-0.5,0.6-0.3,1.1c0.2,0.4,0.6,0.6,1,0.4
		C145.4,669.2,145.5,668.7,145.4,668.3z M150,670.5c-0.2-0.4,0-0.9,0.4-1.1c0.4-0.2,0.9,0,1,0.4c0.2,0.4,0,0.8-0.4,1
		C150.7,671.1,150.1,670.9,150,670.5z M42.7,644c-0.3,0.1-0.4,0.4-0.5,0.8c-0.1-0.1-0.1-0.2-0.2-0.2c-0.4,0-0.7,0.5-0.7,0.9
		c0.1,0.4,0.5,0.7,0.9,0.6c0.4,0,0.6-0.4,0.6-0.8c0.1,0,0.1,0.2,0.3,0.2c0.5-0.1,0.8-0.6,0.6-1C43.6,644.1,43.2,643.8,42.7,644z
		 M131.3,666.4c0.4-0.1,0.7-0.6,0.6-1c-0.1-0.5-0.6-0.7-1-0.6c-0.5,0.1-0.7,0.6-0.6,1C130.4,666.2,130.8,666.5,131.3,666.4z
		 M89.2,654.7c0.4,0,0.8-0.4,0.7-0.9c-0.1-0.4-0.4-0.8-0.9-0.7c-0.4,0.1-0.7,0.4-0.7,0.9C88.3,654.5,88.7,654.8,89.2,654.7z
		 M132.5,668.5c-0.4,0-0.8-0.3-0.9-0.7c0-0.5,0.4-0.9,0.7-0.9c0.4-0.1,0.9,0.3,0.9,0.7C133.3,668.1,133,668.4,132.5,668.5z
		 M23.6,643.2c0.3,0.4,0.7,0.5,1.1,0.2c0.4-0.3,0.5-0.7,0.2-1.1c-0.3-0.4-0.7-0.5-1.1-0.2C23.4,642.4,23.4,642.9,23.6,643.2z
		 M107.1,661.3c0.3,0.4,0.8,0.4,1.2,0.2c0.3-0.2,0.4-0.7,0.2-1.1c-0.3-0.4-0.8-0.4-1.1-0.2C107,660.4,106.9,661,107.1,661.3z
		 M65,651.5c0.1-0.2,0.2-0.3,0.2-0.5c-0.1,0.2-0.1,0.4-0.1,0.6C65.1,651.6,65.1,651.6,65,651.5z M65.5,652c0.3,0.2,0.7,0.1,1-0.2
		c0.2-0.3,0.1-0.9-0.2-1.1c-0.3-0.2-0.9-0.2-1.1,0.2l0,0c-0.1-0.4-0.3-0.7-0.8-0.7c-0.4,0-0.8,0.4-0.8,0.8c0,0.4,0.2,0.7,0.6,0.8
		c-0.1,0.1-0.3,0.3-0.3,0.5c-0.1,0.4,0.2,0.9,0.6,0.9c0.4,0.1,0.9-0.2,1-0.7C65.6,652.3,65.6,652.2,65.5,652z M74.9,652.7
		c-0.2-0.4-0.7-0.5-1.1-0.3c-0.4,0.2-0.6,0.7-0.3,1.1c0.2,0.4,0.7,0.5,1.1,0.3C75.1,653.6,75.2,653.2,74.9,652.7z M57.2,650.4
		c0.4-0.2,0.6-0.7,0.4-1.1c-0.2-0.4-0.7-0.6-1.1-0.3c-0.4,0.1-0.6,0.6-0.4,1C56.4,650.4,56.8,650.6,57.2,650.4z M49.6,645.8
		c0.4,0.3,0.9,0.2,1.1-0.2c0.3-0.4,0.2-0.9-0.2-1.1c-0.4-0.3-0.9-0.2-1.1,0.2C49.2,645.1,49.3,645.6,49.6,645.8z"/>
	<path class="st8" d="M85,649.6c-0.5-0.1-1.1-0.2-1.6-0.3c-0.4-0.1-0.9-0.2-1.3-0.3c0,0.1,0,0.3,0,0.5c-0.1-0.2-0.2-0.5-0.4-0.6
		l-0.3-0.1c-0.4,0.1-0.7,0.5-0.7,0.9c0,0.4,0.4,0.8,0.8,0.8c0.3,0,0.3-0.3,0.5-0.6c0.2,0.2,0.5,0.2,0.8,0.2c0,0,0,0.1,0,0.1
		c0.2,0.4,0.7,0.6,1,0.4c0.1,0,0.1-0.3,0.2-0.4c0.3,0.1,0.7-0.1,0.9-0.4C84.9,649.8,85,649.7,85,649.6z M70.1,646.7
		c-0.5-0.1-1.1-0.2-1.6-0.3c-0.1,0.4,0.2,0.8,0.6,1C69.5,647.5,70,647.2,70.1,646.7C70.1,646.8,70.1,646.8,70.1,646.7z M59.7,645
		c-0.5-0.1-1-0.2-1.6-0.2c0,0.4,0.2,0.8,0.7,0.9C59.2,645.7,59.6,645.5,59.7,645z M56.9,644.6c-0.5-0.1-1-0.1-1.6-0.2
		c0,0.1,0,0.2,0,0.2c0.1,0.5,0.6,0.7,1,0.6C56.7,645.1,56.9,644.9,56.9,644.6z M53.4,644.1c-0.5-0.1-1-0.1-1.5-0.2
		c0.1,0.4,0.4,0.7,0.8,0.6C53,644.5,53.3,644.3,53.4,644.1z M49.2,643.5c-0.5-0.1-1.1-0.2-1.6-0.2c0,0.2,0,0.4,0.2,0.5
		c0.3,0.4,0.7,0.5,1.1,0.2C49.1,643.9,49.2,643.7,49.2,643.5z M36,641.9c-0.5-0.1-1.1-0.1-1.6-0.2c0,0.3,0.1,0.5,0.3,0.7
		c0.3,0.2,0.9,0.2,1.1-0.2C36,642.1,36,642,36,641.9z M20.9,640.5l-0.2,0c-0.1,0-0.1,0-0.2,0c-0.4,0.1-0.7,0.6-0.6,1
		c0.1,0.5,0.6,0.7,1,0.6c0.5-0.1,0.7-0.6,0.6-1C21.4,640.8,21.2,640.6,20.9,640.5z M16.4,640.2c-0.3,0-0.7,0-1-0.1
		c-0.3,0.2-0.4,0.5-0.3,0.8c0.1,0.5,0.5,0.8,0.9,0.7c0.4,0,0.7-0.5,0.7-0.9C16.6,640.5,16.5,640.3,16.4,640.2z M12,639.9
		c-0.7,0-1.4-0.1-2.1-0.1c0.3,0.2,0.6,0.2,0.8,0.1c0.2,0.3,0.4,0.5,0.8,0.4C11.7,640.2,11.9,640.1,12,639.9z M3.7,639.5
		c-0.5,0-1,0-1.6-0.1c-0.1,0.2,0,0.4,0,0.6c0.2,0.4,0.7,0.5,1.2,0.3C3.6,640.2,3.7,639.8,3.7,639.5z M68.5,654.7l-1.3-0.3
		c0.1-0.1,0.1-0.1,0.2-0.2c0,0,0.1,0.1,0.1,0c-0.3-0.1-0.6-0.2-0.7-0.5c0-0.5,0.3-0.8,0.8-0.9c0.4,0,0.8,0.3,0.9,0.7
		c0,0.4-0.3,0.6-0.6,0.7c0.2,0,0.6,0,0.6,0.2C68.5,654.7,68.5,654.7,68.5,654.7z M46.7,649.5l-1.4-0.3c0.1-0.1,0.3-0.3,0.5-0.3
		C46.1,648.8,46.5,649.1,46.7,649.5z M34.8,646.6c-0.5-0.1-1-0.2-1.5-0.3c0.1-0.2,0.3-0.4,0.5-0.4c0.4-0.1,0.9,0.2,1,0.6
		C34.8,646.5,34.8,646.5,34.8,646.6z M31.9,646c-0.6-0.1-1.2-0.2-1.9-0.4c0-0.5,0.3-0.8,0.7-0.8c0.1,0,0.1,0.2,0.2,0.2
		c0-0.1-0.1-0.1,0-0.2c0.2-0.4,0.7-0.4,1.1-0.2c0.3,0.2,0.4,0.8,0.2,1.1C32.2,645.8,32.1,645.9,31.9,646z M79.9,650.9
		c0-0.4-0.4-0.8-0.9-0.8c-0.5,0-0.8,0.3-0.8,0.8c0,0.4,0.4,0.8,0.7,0.8C79.5,651.7,79.9,651.4,79.9,650.9z M46.4,648.9
		c0.4,0.1,0.8-0.2,0.9-0.6c0.1-0.5-0.2-0.9-0.6-0.9c-0.4-0.1-0.8,0.2-0.9,0.6C45.7,648.4,46,648.8,46.4,648.9z M43.2,646.8
		c0.2,0.4,0.7,0.5,1.1,0.3c0.4-0.2,0.6-0.7,0.3-1.1c-0.2-0.5-0.7-0.6-1.1-0.3C43.1,645.9,42.9,646.4,43.2,646.8z M32.1,643.3
		c0.4,0.2,0.9,0,1-0.4c0.2-0.4,0-0.9-0.5-1c-0.4-0.2-0.9,0-1,0.4C31.5,642.7,31.7,643.2,32.1,643.3z M71.1,650.1
		c0.4-0.1,0.7-0.5,0.7-0.9c-0.1-0.4-0.5-0.7-0.9-0.7c-0.4,0.1-0.7,0.5-0.7,0.9C70.2,649.8,70.7,650.2,71.1,650.1z"/>
</g>
<linearGradient id="SVGID_00000064317132510637170960000008745149522715231128_" gradientUnits="userSpaceOnUse" x1="-57.3687" y1="161.8825" x2="-56.9977" y2="76.1136" gradientTransform="matrix(1 0 0 -1 287 848)">
	<stop  offset="0" style="stop-color:#210532"/>
	<stop  offset="0.5758" style="stop-color:#210532;stop-opacity:0.43"/>
	<stop  offset="1" style="stop-color:#210532;stop-opacity:0"/>
</linearGradient>
<path style="opacity:0.8;fill-rule:evenodd;clip-rule:evenodd;fill:url(#SVGID_00000064317132510637170960000008745149522715231128_);enable-background:new    ;" d="
	M459.5,767.9c-32.4-7.1-64.9-14.1-113.9-34c-83.8-34.1-215.5-51.2-307.3-34c-14.3,2.7-26.6,5-37.8,7.3v60.7H459.5z"/>
<linearGradient id="SVGID_00000044157156720120212890000000662087056573609134_" gradientUnits="userSpaceOnUse" x1="-59.5865" y1="154.708" x2="-59.5865" y2="80.107" gradientTransform="matrix(1 0 0 -1 287 848)">
	<stop  offset="0" style="stop-color:#400765"/>
	<stop  offset="1" style="stop-color:#400765;stop-opacity:0"/>
</linearGradient>
<path style="opacity:0.6;fill-rule:evenodd;clip-rule:evenodd;fill:url(#SVGID_00000044157156720120212890000000662087056573609134_);enable-background:new    ;" d="
	M453.8,767.4l-1.2-0.3c-0.5,0.1-1,0.4-1.3,0.8h3C454.2,767.7,454,767.5,453.8,767.4z M404,767.9h-3.5c-0.4-0.8-0.1-1.8,0.6-2.5
	c0.9-0.5,2.1-0.3,2.7,0.6C404.2,766.5,404.2,767.2,404,767.9z M360.6,767.9h-3.9c0-0.1,0-0.2,0-0.4c0.2-0.9,1.2-1.8,2.2-1.7
	C359.9,765.9,360.6,766.8,360.6,767.9z M352.8,767.9H350c-0.4-0.4-0.6-0.9-0.6-1.5c0.2-1,1.1-1.8,2.2-1.7c1,0.1,1.8,0.9,1.8,2.1
	C353.3,767.2,353.1,767.6,352.8,767.9z M196.5,767.9H193c-0.4-0.7-0.1-1.8,0.6-2.4c0.9-0.5,2.1-0.3,2.8,0.6
	C196.7,766.6,196.7,767.3,196.5,767.9z M0.5,721.6v-2.7c0.6,0.5,0.8,1.4,0.4,2.2C0.8,721.3,0.6,721.5,0.5,721.6z M430.6,762
	c-1.1-0.3-2.3-0.6-3.4-0.9c-0.2,0.2-0.3,0.5-0.4,0.8c-0.2,1,0.5,2.1,1.5,2.4c1,0.1,2-0.6,2.2-1.5C430.6,762.5,430.6,762.2,430.6,762
	z M424.2,760.4c-1.2-0.3-2.3-0.6-3.5-0.9c-0.5,0.8-0.3,1.9,0.4,2.5c0.7,0.6,2.1,0.6,2.6-0.2C424,761.3,424.2,760.9,424.2,760.4z
	 M415.9,758.2c-1.1-0.3-2.2-0.6-3.3-0.9c-0.1,0.1-0.2,0.2-0.2,0.4c-0.6,0.8-0.3,2.1,0.7,2.7c1,0.5,2,0.1,2.6-0.8
	C416,759.1,416,758.7,415.9,758.2z M406.3,755.5c-1.2-0.4-2.5-0.7-3.7-1.1c-0.1,0.5-0.1,1,0.2,1.5c0.6,1,1.6,1.2,2.6,0.6
	C405.9,756.3,406.2,755.9,406.3,755.5z M376.2,745.6c-1.2-0.4-2.4-0.9-3.7-1.3c-0.1,0.3-0.1,0.7,0,1c0.1,1,1.2,1.7,2.3,1.5
	C375.5,746.8,376,746.3,376.2,745.6z M343.1,732.9c-0.8-0.3-1.6-0.6-2.4-0.9c0.1,0.2,0.3,0.4,0.5,0.6
	C341.8,733.1,342.5,733.2,343.1,732.9z M332.6,728.9c-1-0.4-2-0.7-3-1.1c0.1,0.4,0.4,0.8,0.8,1.1
	C331.1,729.3,331.9,729.3,332.6,728.9z M322.2,725.2c-1.7-0.6-3.5-1.2-5.2-1.7c-0.1,0-0.2,0.1-0.3,0.1c-0.9,0.5-1,1.9-0.4,2.7
	c0.4,0.6,1,0.3,1.7,0.3c-0.8,0.7-1,1.8-0.4,2.7c0.6,0.8,1.8,0.9,2.6,0.4c0.8-0.7,1-1.9,0.4-2.7c-0.2-0.3-0.7-0.1-1-0.3
	c0.8,0.3,1.6,0.6,2.1-0.1C322.1,726.2,322.3,725.7,322.2,725.2z M204.1,698.8c-2.2-0.3-4.3-0.5-6.4-0.8c-0.2,0.2-0.4,0.3-0.3,0.5
	c0.3,1.1,1.3,1.9,2.3,1.6c0.9-0.1,1-1,1.2-1.8c0.2,0.8,0.1,1.5,0.6,1.6c1,0.5,2.2,0,2.6-0.9C204.1,699,204.1,698.9,204.1,698.8z
	 M172.8,695.4c-1.3-0.1-2.6-0.2-3.8-0.3c-0.1,0.9,0.6,1.9,1.6,2.1c0.9,0.1,2-0.5,2.2-1.6C172.8,695.6,172.8,695.5,172.8,695.4z
	 M153.1,694.1c-1.2-0.1-2.4-0.1-3.6-0.2c0.1,0.1,0.2,0.3,0.3,0.5c-1-0.3-1.9-0.2-2.3,0.7c-0.4,1,0.1,2.2,0.9,2.5
	c1,0.5,2.2,0,2.6-0.9c0.1-0.3-0.3-0.5-0.3-0.9c1,0.3,1.8,0.2,2.3-0.7C153.1,694.7,153.2,694.4,153.1,694.1z M105.6,693.3
	c-1.2,0-2.3,0.1-3.5,0.1c0,0.3,0.1,0.5,0.3,0.7c0.1,0.1,0.2,0.3,0.3,0.4c-0.9,0-1.6,0.8-1.8,1.6c-0.3,1,0.4,2.1,1.4,2.2
	c1,0.3,2.1-0.3,2.3-1.4c0.1-0.7-0.1-1.4-0.6-1.9c0.3,0,0.7-0.1,1-0.3C105.5,694.4,105.6,693.8,105.6,693.3z M82.9,694.3
	c-1.3,0.1-2.5,0.2-3.8,0.3c0.1,0.8,0.7,1.4,1.5,1.6c0.9,0.1,2-0.5,2.2-1.6C82.9,694.6,82.9,694.4,82.9,694.3z M327.4,750.7
	c-0.1-1,0.4-2,1.5-2.2c1-0.3,1.9,0.4,2.3,1.5c0.1,1-0.4,2-1.5,2.2C328.7,752.4,327.8,751.9,327.4,750.7z M249.6,719.5
	c0.8-0.2,1.5,0.1,1.9,0.6l0-0.1c0.2-0.9,1.1-1.7,2.3-1.5c1,0.3,1.7,1.4,1.4,2.4c-0.3,1-1.3,1.6-2.3,1.3c-0.4-0.1-0.8-0.3-1-0.6
	c-0.2,0.7-0.8,1.3-1.5,1.4c-1,0.4-2-0.3-2.3-1.3C247.9,720.7,248.6,719.6,249.6,719.5z M237.4,738c0.3,1.2-0.4,2.2-1.5,2.4
	c-1.1,0.2-2-0.3-2.3-1.5c-0.2-1,0.5-2,1.6-2.2C236,736.4,237.1,737.1,237.4,738z M389.6,766.3c-0.3,1.1-1.6,1.4-2.5,1
	c-0.9-0.5-1.4-1.6-0.9-2.5c0.4-1.1,1.5-1.5,2.5-1C389.8,764.2,390.1,765.3,389.6,766.3z M176.8,703.4c0.9,0.5,1.3,1.6,1,2.7
	c-0.5,1-1.6,1.4-2.6,0.9c-0.9-0.5-1.4-1.6-0.9-2.5C174.6,703.4,175.8,703.1,176.8,703.4z M222.6,720.9c0.5-0.9,1.6-1.4,2.5-1
	c0.9,0.5,1.4,1.6,1,2.7c-0.4,0.9-1.6,1.4-2.5,0.9C222.6,722.9,222.1,721.9,222.6,720.9z M327.6,742.8c1,0.3,1.5,1.2,1.3,2.3
	c-0.2,1.2-1.3,1.8-2.3,1.5c-1-0.2-1.7-1.4-1.4-2.4C325.5,743.2,326.5,742.5,327.6,742.8z M291.9,754.6c1,0.3,1.6,1.3,1.3,2.3
	c-0.3,1-1.3,1.6-2.3,1.4c-1-0.2-1.6-1.2-1.3-2.3C289.8,754.9,290.9,754.3,291.9,754.6z M231.9,749.5c1,0.3,1.5,1.2,1.3,2.3
	c-0.3,1-1.3,1.7-2.3,1.4c-1-0.3-1.6-1.2-1.3-2.3C229.8,749.9,230.9,749.2,231.9,749.5z M224.6,713.8c1,0.3,1.6,1.3,1.3,2.3
	c-0.3,1-1.3,1.6-2.3,1.4c-1-0.3-1.6-1.3-1.3-2.3C222.6,714.2,223.6,713.6,224.6,713.8z M24.5,741.2c1,0.3,1.6,1.4,1.4,2.4
	c-0.3,1-1.3,1.7-2.3,1.4c-1-0.3-1.7-1.4-1.4-2.4C22.4,741.6,23.5,740.9,24.5,741.2z M241.3,736.3c1,0.3,1.6,1.3,1.3,2.3
	c-0.3,1.1-1.3,1.6-2.3,1.4c-1-0.2-1.6-1.2-1.3-2.3C239.3,736.6,240.3,736,241.3,736.3z M218.7,741.1c0.6,1,0.5,2.1-0.4,2.7
	c-0.9,0.7-2.1,0.3-2.7-0.4c-0.7-0.9-0.4-2.2,0.5-2.7C216.9,740,218,740.2,218.7,741.1z M230.1,725.7c0.6,0.8,0.3,2-0.5,2.7
	c-0.9,0.5-2.1,0.3-2.8-0.6c-0.5-0.8-0.4-1.9,0.4-2.6C228.2,724.6,229.4,724.8,230.1,725.7z M263.7,721c-0.6-0.8-0.3-2,0.5-2.7
	c0.6-0.5,1.5-0.5,2.1-0.1c-0.5-0.6-0.6-1.4-0.2-2.1c0.5-1,1.6-1.4,2.6-0.9c0.9,0.5,1.3,1.8,0.7,2.6c-0.5,1-1.7,1.4-2.6,0.9
	c0.6,1,0.5,2.1-0.4,2.7C265.5,722.1,264.4,721.9,263.7,721z M217.3,706.2c0.9-0.8,2.2-0.4,2.7,0.4c0.7,0.9,0.4,2.2-0.5,2.7
	c-0.8,0.7-2,0.5-2.6-0.4C216.2,707.9,216.4,706.7,217.3,706.2z M292.3,719.9c1,0.3,1.6,1.2,1.4,2.2c0.9-0.3,1.9-0.3,2.4,0.4
	c0.6,0.9,0.4,2.2-0.4,2.7c-0.8,0.7-2,0.5-2.7-0.5c-0.6-0.7-0.2-1.6,0.4-2.2c-0.5,0.7-1.1,1.3-1.9,1.1c-1-0.2-1.7-1.3-1.4-2.4
	C290.2,720.2,291.3,719.6,292.3,719.9z M45,723.2c0.7,0.9,0.5,2.1-0.3,2.8c-0.9,0.6-2.1,0.5-2.8-0.5c-0.6-0.8-0.3-2,0.4-2.7
	C43.3,722.3,44.5,722.5,45,723.2z M186.9,716.7c0.4-0.3,0.8,0.2,1.2,0.1c0.3-0.8,1.2-1.5,2.1-1.2c1,0.3,1.6,1.3,1.3,2.3
	c-0.2,1-1.3,1.6-2.3,1.4c-0.2,0.1,0,0.4-0.1,0.5c-0.8,0.7-2,0.5-2.6-0.4C185.8,718.4,185.9,717.2,186.9,716.7z M205.2,702
	c0.9-0.5,2.1-0.3,2.7,0.6c0.6,0.7,0.4,2-0.4,2.7c-1,0.6-2.2,0.4-2.7-0.4C204.1,703.9,204.4,702.6,205.2,702z M265.5,738.5
	c-0.6-0.8-0.4-2,0.4-2.7c0.9-0.6,2.1-0.4,2.7,0.4c0.6,0.9,0.4,2.2-0.5,2.7C267.3,739.6,266.1,739.4,265.5,738.5z M309.6,744.2
	c0.9-0.7,2.2-0.4,2.7,0.3c0.7,0.9,0.4,2.2-0.5,2.7c-0.8,0.7-2,0.5-2.6-0.4C308.6,745.9,308.7,744.7,309.6,744.2z M319,726.7
	c0.2-0.1-0.1-0.4,0-0.5C319.1,726.4,318.9,726.5,319,726.7C319,726.7,319,726.7,319,726.7z M186,727.8c-0.9,0.5-2.1,0.3-2.8-0.6
	c-0.5-0.8-0.4-1.9,0.4-2.7c0.9-0.5,2.1-0.4,2.8,0.6C187,726,186.8,727.1,186,727.8z M211.5,764.3c0.9-0.5,2.1-0.4,2.7,0.6
	c0.5,0.8,0.4,1.9-0.4,2.6c-1,0.6-2.2,0.4-2.8-0.5C210.4,766.2,210.7,765,211.5,764.3z M252.7,711.8c0.9-0.8,2-0.6,2.7,0.4
	c0.6,0.9,0.4,2.2-0.5,2.7c-0.3,0.2-0.5,0.3-0.8,0.3c0.4,0.7,0.2,1.7-0.5,2.4c-0.8,0.7-2,0.7-2.7-0.1c-0.6-0.7-0.5-2.1,0.3-2.8
	c0.3-0.3,0.6-0.4,1-0.5C251.7,713.3,251.8,712.3,252.7,711.8z M212.4,742.9c1.2,0.2,1.9,1.1,1.9,2.2c-0.2,0.9-1.2,1.8-2.2,1.7
	c-1,0-1.8-0.9-1.8-2C210.4,743.6,211.3,742.9,212.4,742.9z M245.3,713.1c1,0.1,1.8,0.9,1.8,2.1c-0.2,0.9-1,1.9-2.1,1.6
	c-1.2,0-1.8-0.9-1.9-2C243.2,713.6,244.2,712.8,245.3,713.1z M283.9,720.7c1,0.1,1.9,1.1,1.8,2.1c-0.1,1.1-1,1.9-2.1,1.8
	c-1,0-1.9-1.1-1.8-2C281.9,721.4,282.8,720.7,283.9,720.7z M209.2,756.1c-1-0.1-1.8-1.1-1.7-2c0.1-1.1,0.9-1.9,2-1.8
	c1.1,0,1.9,1.1,1.8,2C211.2,755.4,210.3,756.1,209.2,756.1z M207,732.8c-0.2,0.9-1,1.9-2.2,1.7c-1-0.1-1.8-0.9-1.7-2.1
	c0.1-1.1,1-1.8,2.1-1.9C206.2,730.8,207,731.6,207,732.8z M292.1,735.1c1.1,0.2,1.9,1,1.8,2.1c-0.1,0.9-1,1.9-2.2,1.7
	c-1,0-1.8-0.9-1.8-2C290.2,735.8,291.1,735,292.1,735.1z M192.8,734.1c1.1,0,1.9,1.1,1.8,2.2c-0.1,0.9-1.1,1.7-2,1.6
	c-1,0-1.8-0.9-1.8-2C190.8,734.8,191.7,734.1,192.8,734.1z M192.8,730.6c-0.2,1-1.1,1.8-2.2,1.7c-1-0.1-1.8-0.9-1.7-2
	c0-1.1,0.9-1.9,2-1.8C192,728.6,192.8,729.5,192.8,730.6z M37.3,705.6c0.7-0.9,1.8-1.1,2.7-0.5c0.9,0.6,1,1.8,0.5,2.7
	c-0.6,0.8-1.9,1.1-2.7,0.5C37,707.7,36.7,706.5,37.3,705.6z M277.4,721.2c0.9,0.6,1,1.8,0.4,2.5c-0.5,1-1.8,1-2.7,0.5
	c-0.8-0.6-1-1.8-0.4-2.6C275.3,720.7,276.6,720.6,277.4,721.2z M304.8,727.8c0.7-0.9,1.9-1.1,2.8-0.6c0.7,0.6,1,1.8,0.5,2.8
	c-0.7,0.9-1.8,1.1-2.7,0.5C304.4,729.8,304.1,728.6,304.8,727.8z M201.4,757.6c0.1-0.5-0.2-1,0.1-1.2c0.9-0.5,2.1-0.4,2.7,0.6
	c0.6,0.8,0.4,1.9-0.4,2.7c-0.5,0.3-0.9-0.1-1.4-0.2c-0.1,0.3,0.3,0.5,0.1,0.8c-0.6,0.8-1.8,1.1-2.6,0.5c-0.9-0.6-1-1.8-0.5-2.7
	C200,757.4,200.6,757.4,201.4,757.6z M338.1,759.7c0.8,0.6,1,1.8,0.5,2.7c-0.7,0.8-1.8,1-2.7,0.5c-0.8-0.6-1-1.8-0.5-2.7
	C336.1,759.4,337.2,759.2,338.1,759.7z M208.7,718.8c1,0.3,1.7,1.4,1.5,2.4c-0.1,0.5-0.7,0.5-1.1,0.7c0.7,0.2,1.5,0.9,1.4,1.8
	c0,1.1-0.9,1.9-1.9,1.8c-1.2-0.2-1.9-1.1-1.9-2.2c0.1-0.5,0.6-0.6,1.1-0.9c-0.9-0.3-1.5-1.1-1.3-2.1
	C206.8,719.3,207.7,718.6,208.7,718.8z M221.2,725.5c1,0.3,1.7,1.2,1.4,2.2c-0.3,1-1.2,1.8-2.2,1.6c-1-0.3-1.8-1.3-1.5-2.4
	C219.1,725.8,220.2,725.2,221.2,725.5z M28.5,708.3c-1.1-0.3-1.8-1.4-1.5-2.4c0.2-1,1.3-1.6,2.3-1.4c1,0.3,1.6,1.3,1.4,2.2
	C30.6,708,29.6,708.6,28.5,708.3z M22.6,720.5c-1-0.3-1.6-1.3-1.4-2.3c0.3-1,1.2-1.8,2.3-1.5c1,0.3,1.8,1.4,1.5,2.4
	C24.7,720.1,23.7,720.7,22.6,720.5z M82.8,698.5c1.1,0.2,1.8,1.4,1.5,2.4c-0.2,1-1.3,1.7-2.3,1.4c-1-0.2-1.6-1.2-1.4-2.2
	C80.8,698.9,81.8,698.3,82.8,698.5z M36.4,727.9c-0.2,1,0.4,2,1.4,2.2c0.3,0.1,0.4-0.3,0.6-0.3c-0.3,0.9-0.2,1.9,0.6,2.3
	c0.9,0.5,2.1,0.3,2.6-0.7c0.5-1,0.2-2.1-0.7-2.7c-0.4-0.2-0.8,0.3-1.3,0.3c0.1-0.1,0.5-0.1,0.6-0.3c0.2-0.9-0.5-2.1-1.5-2.4
	C37.7,726.2,36.6,726.9,36.4,727.9z M208.2,748.6c-1-0.3-2,0.5-2.3,1.5c-0.3,1,0.4,1.9,1.4,2.2c1,0.3,2.1-0.3,2.3-1.4
	C209.9,750,209.2,748.9,208.2,748.6z M197.4,708.9c1,0.2,1.8,1.3,1.5,2.4c-0.3,1-1.3,1.7-2.3,1.4c-1-0.3-1.7-1.2-1.4-2.2
	C195.4,709.4,196.4,708.7,197.4,708.9z M231.1,707.4c0.8-0.7,1.9-0.7,2.6,0.2c0.7,0.9,0.6,2-0.2,2.7c-0.9,0.7-2.1,0.6-2.7-0.2
	C230.1,709.3,230.2,708.2,231.1,707.4z M307.6,750.6c0.8-0.7,2.1-0.6,2.8,0.3c0.6,0.8,0.5,1.9-0.3,2.6c-0.8,0.7-2,0.7-2.7-0.2
	C306.6,752.4,306.8,751.3,307.6,750.6z M207.1,739.1c-0.7-0.9-0.6-2,0.1-2.8c0.8-0.7,2.1-0.5,2.7,0.2c0.7,0.8,0.6,2.1-0.2,2.7
	C208.9,739.9,207.6,739.8,207.1,739.1z M337,753c-0.9,0.7-2.1,0.6-2.8-0.3c-0.6-0.7-0.5-1.9,0.4-2.6c0.8-0.7,1.9-0.7,2.6,0.2
	C337.9,751.1,337.8,752.2,337,753z M276.1,753.4c0.8-0.8,2-0.6,2.7,0.1c0.7,0.9,0.6,2-0.2,2.8c-0.8,0.7-2.1,0.5-2.6-0.2
	C275.2,755.2,275.3,754.1,276.1,753.4z M27.2,733.3c0.7,0.9,0.6,2.1-0.2,2.7c-0.8,0.7-2,0.6-2.6-0.2c-0.7-0.9-0.6-2,0.2-2.7
	C25.3,732.5,26.5,732.6,27.2,733.3z M349.1,753c0.8-0.7,2.1-0.6,2.6,0.2c0.8,0.9,0.7,2-0.1,2.7c-0.8,0.7-2.1,0.6-2.7-0.1
	C348.1,754.9,348.3,753.7,349.1,753z M90.5,701.1c-0.6-0.5-0.5-1.4-0.3-2.3c-0.2,0.1-0.6,0.3-0.7,0.2c-0.9-0.6-1.1-1.7-0.5-2.7
	c0.6-0.8,1.8-1,2.6-0.5c0.7,0.5,0.8,1.5,0.4,2.3c0.3,0.1,0.6-0.3,0.9-0.1c0.9,0.8,1.1,2,0.4,2.9C92.6,701.6,91.4,701.9,90.5,701.1z
	 M304.5,742.8c0.8,0.6,0.9,1.9,0.3,2.7c-0.7,0.9-1.9,0.9-2.7,0.3c-0.9-0.7-1-2-0.2-2.7C302.5,742.3,303.6,742.1,304.5,742.8z
	 M66.1,714.4c-0.1-0.1-0.3,0.2-0.4,0.1c-0.9-0.6-1.2-1.9-0.6-2.7c0.7-0.8,1.9-1.1,2.8-0.5c0.6,0.3,0.3,1.1,0.4,1.7
	c0.3,0,0.4-0.3,0.6-0.1c0.8,0.6,0.9,1.9,0.3,2.7c-0.7,0.9-1.9,1.1-2.7,0.3C65.8,715.4,66.1,714.8,66.1,714.4z M209.4,710.2
	c0.7-0.9,2-1,2.8-0.4c0.7,0.7,0.9,1.9,0.2,2.8c-0.6,0.8-1.8,0.9-2.6,0.2C208.9,712.2,208.8,710.9,209.4,710.2z M350.8,756.4
	c-1,0.2-1.8,1-1.5,2.2c0.1,1,1.2,1.7,2.2,1.6c1.1-0.2,1.8-1.3,1.6-2.3C352.9,756.7,351.8,756,350.8,756.4z M242.5,750.7
	c0.3,1.2-0.4,2-1.5,2.2c-1,0.3-2-0.4-2.2-1.5c-0.1-1,0.6-2.1,1.5-2.2C241.4,749,242.3,749.7,242.5,750.7z M201,743
	c0.9-0.3,2,0.4,2.2,1.6c0.2,1-0.5,2.1-1.6,2.2c-1,0.1-2.1-0.5-2.2-1.5C199.1,744.1,199.9,743.2,201,743z M249.2,715.5
	c1.1-0.2,1.8-1.2,1.6-2.2c-0.2-1.1-1.2-1.7-2.2-1.6c-1.1,0.2-1.8,1.2-1.7,2.2C247.2,715,248.2,715.7,249.2,715.5z M268.2,749.2
	c1.1-0.2,2,0.5,2.3,1.7c0.1,1-0.5,2-1.6,2.2c-1.1,0.2-2-0.5-2.2-1.5C266.5,750.3,267.1,749.3,268.2,749.2z M26.1,726.7
	c0-0.4-0.4-0.8-0.2-1.2c0.7-0.9,2-1,2.7-0.3c0.9,0.8,1.1,2,0.4,2.9c-0.4,0.4-1,0.2-1.7,0.1c0.1,0.4,0.5,0.6,0.3,0.9
	c-0.5,0.9-1.7,1.3-2.7,0.7c-0.9-0.5-1.2-1.7-0.7-2.6C24.6,726.5,25.4,726.7,26.1,726.7z M201.8,725.1c0.9,0.4,1.2,1.7,0.7,2.7
	c-0.5,0.7-1.7,1.2-2.6,0.7c-0.9-0.6-1.2-1.7-0.7-2.7C199.6,724.9,200.8,724.6,201.8,725.1z M181.6,704.5c0.4-0.9,1.7-1.2,2.5-0.9
	c0.9,0.6,1.3,1.8,0.7,2.7c-0.5,0.9-1.5,1.3-2.5,0.9C181.4,706.6,181,705.5,181.6,704.5z M232.2,755c0.5-0.9,1.8-1.2,2.6-0.7
	c0.9,0.5,1.3,1.7,0.8,2.6c-0.5,1-1.7,1.2-2.6,0.7C232,757.1,231.8,755.9,232.2,755z M221.1,756.5c0.6-1,1.7-1.2,2.7-0.7
	c0.9,0.5,1.2,1.7,0.7,2.6c-0.6,1-1.8,1.3-2.7,0.7C221,758.6,220.6,757.4,221.1,756.5z M193.6,706c0.9,0.6,1.2,1.7,0.7,2.6
	c-0.5,1-1.7,1.2-2.6,0.9c-0.8-0.6-1.3-1.9-0.7-2.7C191.5,705.8,192.6,705.4,193.6,706z M384.6,764.9c-0.4,1-1.7,1.2-2.5,0.9
	c-0.9-0.6-1.3-1.8-0.8-2.8c0.7-0.8,1.7-1.2,2.7-0.7C384.9,762.7,385.1,763.9,384.6,764.9z M269.2,722.4c-0.4,0.9-0.2,2.1,0.8,2.6
	c1,0.6,2.1,0.3,2.6-0.7c0.5-0.9,0.2-2.1-0.8-2.6C271,721.1,269.7,721.4,269.2,722.4z M309.3,739.5c1,0.6,1.2,1.7,0.8,2.6
	c-0.5,0.9-1.8,1.2-2.6,0.7c-0.9-0.4-1.3-1.6-0.8-2.6C307.3,739.4,308.4,739,309.3,739.5z M383.9,755.4c-0.9-0.6-1.2-1.7-0.7-2.7
	c0.5-0.9,1.7-1.2,2.6-0.7c1,0.5,1.2,1.7,0.8,2.6C386.1,755.6,384.9,756,383.9,755.4z M66.3,708.1c0.7,0.4,1.5,0,2.1-0.6
	c0,0.4-0.4,0.7-0.2,1c0.1,0.2,0.4,0,0.6,0.1c-0.5,0.3-1.2,0.5-1.4,1c-0.3,1.1,0.4,2,1.4,2.2c1,0.3,2.1-0.3,2.3-1.3
	c0.1-0.7-0.4-1-1-1.6c0.3,0,0.5,0.3,0.7,0.2c0.2-0.1,0-0.5,0.1-0.7c0.9,0.6,1.9,0.6,2.5-0.1c0.7-0.9,0.6-2.1-0.4-2.9
	c-0.8-0.6-2-0.5-2.7,0.3c-0.1,0.1,0.1,0.4,0.1,0.6c-0.6-0.3-1.3-0.8-1.9-0.4c-0.2,0.1,0,0.4-0.1,0.5c-0.1-0.7,0.2-1.2-0.3-1.6
	c-1-0.5-2.1-0.3-2.7,0.7C65.1,706.5,65.4,707.6,66.3,708.1z M330.8,732.2c1-0.6,2.1-0.4,2.7,0.6c0.6,1,0.2,2.1-0.8,2.7
	c-0.9,0.5-2,0.3-2.6-0.7C329.6,733.8,329.9,732.7,330.8,732.2z M258.6,742.9c0.9-0.5,2.1-0.1,2.7,0.8c0.5,0.9,0.2,2.1-0.7,2.6
	c-0.9,0.5-2.2,0.2-2.6-0.7C257.4,744.7,257.8,743.4,258.6,742.9z M217.3,714.5c0.6,0.9,0.3,2.2-0.6,2.8c-0.9,0.6-2.2,0.2-2.7-0.8
	c-0.5-0.8-0.2-2.1,0.7-2.6C215.6,713.3,216.8,713.7,217.3,714.5z M207.2,712.7c0.5,0.8,0.2,2.1-0.7,2.7c-0.9,0.5-2.1,0.1-2.6-0.7
	c-0.6-0.9-0.3-2.2,0.6-2.8C205.5,711.4,206.7,711.8,207.2,712.7z M247.2,729.2c1-0.6,2.2-0.2,2.7,0.8c0.5,0.8,0.2,2-0.7,2.6
	c-0.9,0.5-2.1,0.1-2.5-0.7C246,730.9,246.3,729.7,247.2,729.2z M227.6,718.2c-0.5-0.8-0.3-2.1,0.6-2.6c1-0.6,2.2-0.2,2.7,0.6
	c0.6,0.9,0.3,2.2-0.7,2.8C229.4,719.6,228.2,719.2,227.6,718.2z M85.5,755.1c0.5,0.8,0.2,2-0.7,2.6c-0.9,0.5-2.1,0.2-2.6-0.6
	c-0.6-1-0.3-2.2,0.6-2.8C83.7,753.8,84.9,754.1,85.5,755.1z M146.4,707.5c0.1,0.5,0.1,0.9,0,1.4c0.1-0.5,0.2-1,0.4-1.3
	C146.7,707.5,146.5,707.5,146.4,707.5z M148,706.9c0.9,0,1.7,0.5,2,1.5c0.1,1-0.6,2.1-1.6,2.2c-1,0.2-2.1-0.5-2.2-1.5l0.1-0.1
	c-0.5,0.8-1.4,1.3-2.4,0.7c-0.8-0.3-1.4-1.6-0.9-2.5c0.4-0.7,1.2-1.2,2-1.1c-0.2-0.4-0.3-0.9-0.1-1.3c0.3-1,1.3-1.6,2.3-1.4
	c1,0.3,1.7,1.4,1.4,2.4C148.5,706.4,148.2,706.7,148,706.9z M80.2,715c0.5-0.9,1.6-1.3,2.5-1c0.2,0.1,0.4,0.2,0.5,0.3
	c-0.2-0.5-0.1-1.2,0.3-1.6c0.5-1,1.8-1.1,2.6-0.5c0.9,0.6,1.1,1.7,0.5,2.5c-0.6,1-1.8,1.2-2.8,0.5l-0.1-0.1c0.1,0.5,0.1,1,0,1.5
	c-0.4,0.9-1.6,1.4-2.5,0.9C80,717,79.6,716,80.2,715z M81.8,721.7c0.5-0.9,1.7-1.4,2.6-0.9c0.9,0.4,1.4,1.6,1,2.5
	c-0.5,0.9-1.6,1.3-2.6,0.9C81.8,723.8,81.3,722.6,81.8,721.7z M150.9,745.4c-0.9-0.3-1.6-1.5-1.4-2.4c0.3-1,1.3-1.6,2.3-1.4
	c0.8,0.1,1.2,1,1.2,1.9c0.7-0.4,1.6-0.9,2.2-0.2c0.8,0.6,1,1.8,0.3,2.7c-0.6,0.8-1.8,0.9-2.6,0.2c-0.6-0.5-0.4-1.3-0.2-2
	C152.2,744.9,151.7,745.6,150.9,745.4z M38.6,762.6c1,0.2,1.7,1.3,1.4,2.4c-0.2,1-1.3,1.6-2.3,1.4c-1-0.3-1.7-1.4-1.4-2.4
	C36.5,762.9,37.6,762.3,38.6,762.6z M58.7,735.5c-1-0.2-1.6-1.2-1.3-2.3c0.3-1,1.3-1.6,2.3-1.4c1,0.3,1.6,1.3,1.3,2.2
	C60.7,735.2,59.7,735.8,58.7,735.5z M121.6,762.2c-1-0.2-1.7-1.2-1.4-2.2c0.2-1.2,1.3-1.8,2.4-1.6c1,0.3,1.7,1.4,1.4,2.4
	C123.7,761.8,122.7,762.4,121.6,762.2z M169,714.9c-0.8,0.7-2,0.5-2.6-0.4c-0.7-0.9-0.5-2.1,0.4-2.7c0.8-0.7,2.1-0.3,2.6,0.4
	C170.2,713.2,170,714.3,169,714.9z M74.3,760.1c-1,0.6-2.1,0.5-2.6-0.4c-0.6-0.9-0.4-2.1,0.4-2.6c0.8-0.7,2-0.5,2.6,0.4
	C75.3,758.3,75.1,759.4,74.3,760.1z M61.1,729.3c-1,0.6-2.2,0.4-2.7-0.4c-0.2-0.3-0.4-0.7-0.4-1.1c-0.5,0.9-1.7,1.1-2.6,0.6
	c-0.9-0.5-1.2-1.7-0.7-2.7c0.4-0.9,1.7-1.2,2.6-0.7c0.6,0.4,0.9,1,0.9,1.6c0.1-0.2,0.3-0.4,0.6-0.6c0.8-0.7,2-0.5,2.6,0.4
	C62,727.5,61.8,728.6,61.1,729.3z M118.7,712.4c1-0.6,2.2-0.4,2.8,0.5c0.6,0.8,0.3,2-0.5,2.7c-0.9,0.5-2.1,0.3-2.6-0.4
	C117.7,714.3,117.9,713.1,118.7,712.4z M151.2,733c1,0.1,1.8,0.9,1.7,2.1c0,1.1-1,1.8-2.1,1.6c-1.1,0-1.8-0.9-1.8-2
	C149.3,733.8,150.1,732.9,151.2,733z M166.7,706.1c-0.8-0.6-1.1-1.7-0.5-2.7c0.7-0.8,1.8-1,2.7-0.5c0.9,0.6,1,1.8,0.5,2.7
	C168.7,706.4,167.6,706.6,166.7,706.1z M45.1,760.3c0.8,0.6,1,1.8,0.5,2.7c-0.6,0.8-1.8,1.1-2.6,0.5c-0.9-0.6-1.1-1.7-0.6-2.7
	C43,760,44.2,759.7,45.1,760.3z M93,727.1c1,0.3,1.7,1.2,1.4,2.3c-0.3,1-1.2,1.8-2.3,1.5c-1-0.3-1.6-1.2-1.5-2.4
	C91,727.5,92,726.9,93,727.1z M151.6,702.1c-1-0.3-2.1,0.3-2.2,1.3c-0.2,1.2,0.4,2.2,1.4,2.4c1.1,0.2,2.2-0.4,2.3-1.5
	C153.2,703.3,152.6,702.3,151.6,702.1z M87,749c-1.1-0.2-1.7-1.2-1.4-2.2c0.2-1,1.2-1.8,2.2-1.6c1,0.3,1.8,1.4,1.5,2.4
	C89.2,748.6,88.1,749.2,87,749z M141.2,736.5c1,0.3,1.8,1.4,1.5,2.4c-0.2,1-1.3,1.6-2.3,1.4c-0.9-0.1-1.6-1.2-1.4-2.2
	C139.2,737,140.3,736.4,141.2,736.5z M128.4,701.9c0.6,0.7,0.5,2.1-0.2,2.7c-0.8,0.7-2,0.6-2.7-0.4c-0.7-0.7-0.6-1.9,0.2-2.5
	C126.5,701.1,127.7,701.1,128.4,701.9z M129.1,729c0.7,0.7,0.7,2-0.2,2.5c-0.8,0.9-2,0.7-2.8-0.2c-0.6-0.7-0.5-2.1,0.3-2.8
	C127.2,727.9,128.4,728.1,129.1,729z M12.4,755.7c0.7,0.9,0.6,2-0.1,2.7c-0.9,0.7-2,0.5-2.7-0.2c-0.7-0.9-0.6-2.1,0.2-2.7
	C10.6,754.8,11.8,755,12.4,755.7z M122.1,719c0.7,0.8,2,1,2.8,0.3c0.8-0.7,0.9-2,0.3-2.8c-0.7-0.8-2-1-2.8-0.3
	C121.6,716.9,121.5,718.2,122.1,719z M155.3,722.8c0.7-0.9,2-0.9,2.7-0.3c0.8,0.6,1,1.8,0.3,2.7c-0.6,0.8-1.9,0.8-2.6,0.2
	C154.7,724.8,154.7,723.6,155.3,722.8z M63.8,752.3c0.8,0.6,0.9,1.9,0.2,2.8c-0.6,0.8-1.9,0.8-2.6,0.2c-0.9-0.8-1-2-0.4-2.8
	C61.7,751.6,62.9,751.5,63.8,752.3z M130.5,731.2c0.8,0.6,2,0.6,2.7-0.3c0.7-0.9,0.5-2.1-0.3-2.7c-0.8-0.6-2-0.6-2.7,0.3
	C129.6,729.4,129.7,730.6,130.5,731.2z M98.5,728.9c0.7-0.9,1.9-0.9,2.7-0.3c0.8,0.7,0.9,1.9,0.3,2.7c-0.7,0.9-1.9,0.9-2.6,0.3
	C98,730.9,97.8,729.8,98.5,728.9z M159.2,697.6c1-0.4,1.9,0.4,2.2,1.5c0.2,1.1-0.4,2-1.5,2.2c-1,0.2-2.1-0.5-2.2-1.5
	C157.4,698.7,158.1,697.8,159.2,697.6z M107.3,704.1c1.1-0.2,2,0.5,2.2,1.5c0.2,1-0.4,2-1.5,2.2c-1.1,0.2-2.1-0.5-2.2-1.5
	C105.6,705.3,106.2,704.3,107.3,704.1z M107,698.4c-0.3-1.2,0.5-2.1,1.6-2.3c0.9-0.1,1.7,0.5,2,1.4c0-0.2-0.4-0.2-0.3-0.5
	c0.2-1,1.3-1.6,2.3-1.4c0.6,0.3,0.7,0.9,0.9,1.6c0.6-0.4,1.3-0.7,1.9-0.2c-0.2-0.8-0.4-1.5,0.1-2c0.9-0.7,2.1-0.5,2.7,0.2
	c0.7,0.8,0.6,2.1-0.2,2.7c-0.8,0.7-1.9,0.5-2.5-0.2c0.5,0.8,0.7,1.5,0.3,2.2c-0.8,0.7-1.9,0.9-2.8,0.1c-0.5-0.4-0.1-1-0.2-1.4
	c-0.5,0.3-0.7,0.9-1.3,0.7c-0.8-0.2-0.7-0.8-0.9-1.6c0,1-0.5,2-1.6,2.2C108.2,700.1,107.1,699.4,107,698.4z M90.5,750.4
	c1.1-0.2,2,0.6,2.2,1.6c0.3,1.1-0.4,2-1.5,2.2c-1.1,0.2-2-0.4-2.2-1.5C88.8,751.6,89.4,750.6,90.5,750.4z M129.1,724.4
	c-1,0.1-1.6,1.2-1.5,2.2c0.1,1,1.1,1.8,2.2,1.6c1.1-0.2,1.8-1,1.5-2.2C131.2,724.9,130.2,724.2,129.1,724.4z M139,716
	c1-0.1,2.1,0.6,2.2,1.6c0.2,1.1-0.5,2-1.6,2.2c-1,0.2-2-0.4-2.2-1.5C137.2,717.2,137.9,716.2,139,716z M141.2,694.8
	c0.6-1,1.7-1.2,2.7-0.7c0.9,0.5,1.2,1.7,0.7,2.6c-0.5,1-1.8,1.3-2.7,0.7C141,696.9,140.7,695.8,141.2,694.8z M171.2,745.5
	c0.9,0.5,1.2,1.7,0.7,2.7c-0.5,0.9-1.7,1.2-2.6,0.6c-0.9-0.4-1.3-1.6-0.7-2.6C169.2,745.4,170.2,745,171.2,745.5z M99.5,711.9
	c0.5-0.9,1.6-1.4,2.6-0.8c0.9,0.5,1.4,1.8,0.7,2.6c-0.5,0.9-1.7,1.4-2.5,0.9C99.3,714,98.8,712.8,99.5,711.9z M161.4,764.6
	c0.5-0.9,1.7-1.2,2.5-0.9c1,0.5,1.3,1.9,0.7,2.7c-0.4,0.9-1.6,1.4-2.5,0.9C161.2,766.6,160.9,765.5,161.4,764.6z M79.2,728.1
	c1,0.5,1.3,1.6,0.8,2.6c-0.5,0.9-1.7,1.2-2.6,0.7c-0.9-0.5-1.2-1.7-0.7-2.6C77.1,727.8,78.3,727.5,79.2,728.1z M112,712.2
	c0.9,0.5,1.3,1.6,0.7,2.6c-0.5,0.9-1.7,1.2-2.5,0.9c-1-0.5-1.3-1.9-0.8-2.6C110,712.1,111.1,711.7,112,712.2z M98,747.8
	c0.4-0.7,1.3-0.8,2-0.6c-0.3-0.7-0.2-1.8,0.6-2.3c0.9-0.6,2.2-0.2,2.6,0.6c0.6,1,0.2,2.1-0.7,2.6c-0.7,0.4-1.2-0.2-1.8-0.5
	c0.5,0.5,1.1,1.3,0.6,2c-0.5,0.9-1.7,1.2-2.6,0.7C97.8,749.9,97.5,748.7,98,747.8z M130.8,693.8c1-0.6,2.1-0.4,2.7,0.6
	c0.6,1,0.2,2.1-0.8,2.7c-0.9,0.5-2,0.3-2.6-0.7C129.6,695.4,129.9,694.3,130.8,693.8z M89.7,710.1c0.9-0.5,2.1-0.2,2.7,0.8
	c0.5,0.8,0.2,2-0.7,2.6c-0.9,0.6-2.2,0.2-2.6-0.6C88.5,711.9,88.8,710.6,89.7,710.1z"/>
<path class="st2" d="M128.5,143.9l72-70l-80-50l-87,50v-69"/>
<path class="st11" d="M272.5,640.3c-5.7-2.4-6.5,5.9-5.3,8.1c-2.7,0.5-1.2,2.1-3.3,2.4c-5.5,0.8-6,9.9-7.9,15.5
	c-0.7,1.9-1.3,5.7-0.5,7.6c0.3,4.9,1.5,4.6,2.4,4.3c0.6,1.6-0.4,7.6-1.2,9.2c-3.8,8.1-1.7,8.1-3.1,14.2c-0.8,3.3-1.5,5.8-1,7.2
	c0.4,1.1,1.1,1.7,4.6,1.8c0.5,0,0-0.2,0.8-0.2c0.5-0.8-0.9-7.6,0.1-10.2c0-0.4,2.2-5.9,2.6-6.4c0.1-0.2,4.8-10,5-10.5
	c1.7,3-0.3,16-0.8,20.3c-0.2,2.1-1,3-0.5,6.4c0.2,1,0.4,0.6,0.6,1.2c2.6,0.9,2.5,0.7,4.8-0.1c0.5-2.5-0.5-1.7-0.9-3.7
	c0.3-4,1.1-5.8,2.6-10.2c0.1-2.5,0,3.9,1.2-9.7c0.1-3.7,2-7,2.9-10.5l0-0.5c0.3-3.7,1.1-7.5,1.1-12c-0.3,1.3,2.8,7.4,3.1,8.7
	c0.8,2.6,1.4,2,1.8,5.4c0.5,3.2,2.9,0.5,2.8-3.2c-0.1-3.3-2-9.3-3.4-12.2c-0.7-1.4-1.2-6.6-2.5-8.7c-2.3-3.6-1.1-1.1-3.7-4.2
	c-1.7-2-2.2-2-1-3.1C274.4,646.7,276.6,642,272.5,640.3z"/>
<path class="st12" d="M427,561.5l-1.9-4.6l3.5,1.3L427,561.5z"/>
<path class="st12" d="M541.9,520l-1.8-4.6l3.4,1.3L541.9,520z"/>
<path class="st5" d="M525.9,588.7l-1.9-4.6l3.5,1.3L525.9,588.7z"/>
<path class="st12" d="M695.5,519.4l-1.8-4.4l3.3,1.2L695.5,519.4z"/>
<path class="st12" d="M727,667.2l-1.7-4.4l3.2,1.3L727,667.2z"/>
<path class="st5" d="M631.9,631.6l3.1-3.9l0.6,3.6L631.9,631.6z"/>
<path class="st12" d="M377.6,641.2l3.1-3.9l0.6,3.6L377.6,641.2z"/>
<path class="st12" d="M696.3,588.7l0.3-2l1,1.2L696.3,588.7z"/>
<path class="st12" d="M621.5,551.7l0.3-2.1l1,1.2L621.5,551.7z"/>
<path class="st12" d="M659.4,592l0.3-2l1,1.2L659.4,592z"/>
<path class="st12" d="M671.8,687.3l0.3-2l1,1.2L671.8,687.3z"/>
<path class="st12" d="M651.3,515l0.3-2.1l1,1.2L651.3,515z"/>
<path class="st12" d="M570.1,592.8l0.3-2.1l1,1.2L570.1,592.8z"/>
<path class="st12" d="M577.9,515l0.3-2.1l1,1.2L577.9,515z"/>
<path class="st12" d="M466.6,575.8l0.3-2.1l1,1.2L466.6,575.8z"/>
<path class="st12" d="M420,619.4l0.3-2l1,1.2L420,619.4z"/>
<path class="st12" d="M353.5,527l0.3-2l1,1.2L353.5,527z"/>
<path class="st12" d="M429.9,694.6l-1.9-4.6l3.5,1.3L429.9,694.6z"/>
<path class="st5" d="M485,663.2l-1.9-4.6l3.5,1.3L485,663.2z"/>
<path class="st12" d="M469.5,708.9l0.3-2.1l1,1.2L469.5,708.9z"/>
<path class="st12" d="M838,561.5l-1.9-4.6l3.5,1.3L838,561.5z"/>
<path class="st12" d="M952.9,520l-1.8-4.6l3.4,1.3L952.9,520z"/>
<path class="st12" d="M936.9,588.7l-1.9-4.6l3.5,1.3L936.9,588.7z"/>
<path class="st12" d="M1106.5,519.4l-1.8-4.4l3.3,1.2L1106.5,519.4z"/>
<path class="st12" d="M1138,667.2l-1.7-4.4l3.2,1.3L1138,667.2z"/>
<path class="st12" d="M1042.9,631.6l3.1-3.9l0.6,3.6L1042.9,631.6z"/>
<path class="st12" d="M788.6,641.2l3.1-3.9l0.6,3.6L788.6,641.2z"/>
<path class="st12" d="M1107.3,588.7l0.3-2l1,1.2L1107.3,588.7z"/>
<path class="st12" d="M1032.5,551.7l0.3-2.1l1,1.2L1032.5,551.7z"/>
<path class="st12" d="M1070.4,592l0.3-2l1,1.2L1070.4,592z"/>
<path class="st12" d="M1082.8,687.3l0.3-2l1,1.2L1082.8,687.3z"/>
<path class="st12" d="M1062.3,515l0.3-2.1l1,1.2L1062.3,515z"/>
<path class="st12" d="M981.1,592.8l0.3-2.1l1,1.2L981.1,592.8z"/>
<path class="st12" d="M988.9,515l0.3-2.1l1,1.2L988.9,515z"/>
<path class="st12" d="M877.6,575.8l0.3-2.1l1,1.2L877.6,575.8z"/>
<path class="st12" d="M831,619.4l0.3-2l1,1.2L831,619.4z"/>
<path class="st12" d="M764.5,527l0.3-2l1,1.2L764.5,527z"/>
<path class="st12" d="M840.9,694.6l-1.9-4.6l3.5,1.3L840.9,694.6z"/>
<path class="st12" d="M896,663.2l-1.9-4.6l3.5,1.3L896,663.2z"/>
<path class="st12" d="M880.5,708.9l0.3-2.1l1,1.2L880.5,708.9z"/>
<path class="st12" d="M1051,647.5l-1.9-4.6l3.5,1.3L1051,647.5z"/>
<path class="st12" d="M1165.9,606l-1.8-4.6l3.4,1.3L1165.9,606z"/>
<path class="st12" d="M1149.9,674.7l-1.8-4.6l3.4,1.3L1149.9,674.7z"/>
<path class="st12" d="M1319.5,605.4l-1.8-4.4l3.3,1.2L1319.5,605.4z"/>
<path class="st12" d="M1351,753.2l-1.7-4.4l3.2,1.3L1351,753.2z"/>
<path class="st12" d="M1255.9,717.6l3.1-3.9l0.6,3.6L1255.9,717.6z"/>
<path class="st12" d="M1001.6,727.2l3.1-3.9l0.6,3.6L1001.6,727.2z"/>
<path class="st12" d="M1320.3,674.7l0.3-2l1,1.2L1320.3,674.7z"/>
<path class="st12" d="M1245.5,637.7l0.3-2.1l1,1.2L1245.5,637.7z"/>
<path class="st12" d="M1283.4,678l0.3-2l1,1.2L1283.4,678z"/>
<path class="st12" d="M1275.3,601l0.3-2.1l1,1.2L1275.3,601z"/>
<path class="st12" d="M1194.1,678.8l0.3-2.1l1,1.2L1194.1,678.8z"/>
<path class="st12" d="M1201.9,601l0.3-2.1l1,1.2L1201.9,601z"/>
<path class="st12" d="M1090.6,661.8l0.2-2.1l1,1.2L1090.6,661.8z"/>
<path class="st12" d="M1044,705.4l0.3-2l1,1.2L1044,705.4z"/>
<path class="st12" d="M977.5,613l0.3-2l1,1.2L977.5,613z"/>
<path class="st12" d="M1109,749.2l-1.9-4.6l3.5,1.3L1109,749.2z"/>
<path class="st12" d="M336,449.5l-1.9-4.6l3.5,1.3L336,449.5z"/>
<path class="st12" d="M450.9,408l-1.8-4.6l3.4,1.3L450.9,408z"/>
<path class="st12" d="M434.9,476.7l-1.9-4.6l3.5,1.3L434.9,476.7z"/>
<path class="st12" d="M604.5,407.4l-1.8-4.4l3.3,1.2L604.5,407.4z"/>
<path class="st12" d="M636,555.2l-1.7-4.4l3.2,1.3L636,555.2z"/>
<path class="st12" d="M540.9,519.6l3.1-3.9l0.6,3.6L540.9,519.6z"/>
<path class="st12" d="M286.6,529.2l3.1-3.9l0.6,3.6L286.6,529.2z"/>
<path class="st12" d="M605.3,476.7l0.3-2l1,1.2L605.3,476.7z"/>
<path class="st12" d="M530.5,439.7l0.3-2.1l1,1.2L530.5,439.7z"/>
<path class="st12" d="M568.4,480l0.3-2l1,1.2L568.4,480z"/>
<path class="st12" d="M580.8,575.3l0.3-2l1,1.2L580.8,575.3z"/>
<path class="st12" d="M560.3,403l0.3-2.1l1,1.2L560.3,403z"/>
<path class="st12" d="M479.1,480.8l0.3-2.1l1,1.2L479.1,480.8z"/>
<path class="st12" d="M486.9,403l0.3-2.1l1,1.2L486.9,403z"/>
<path class="st12" d="M375.6,463.8l0.3-2.1l1,1.2L375.6,463.8z"/>
<path class="st12" d="M329,507.4l0.3-2l1,1.2L329,507.4z"/>
<path class="st12" d="M262.5,415l0.3-2l1,1.2L262.5,415z"/>
<path class="st12" d="M338.9,582.6l-1.9-4.6l3.5,1.3L338.9,582.6z"/>
<path class="st12" d="M394,551.2l-1.9-4.6l3.5,1.3L394,551.2z"/>
<path class="st12" d="M378.5,596.9l0.3-2.1l1,1.2L378.5,596.9z"/>
<path class="st5" d="M151,267.5l-1.9-4.6l3.5,1.3L151,267.5z"/>
<path class="st5" d="M265.9,226l-1.8-4.6l3.4,1.3L265.9,226z"/>
<path class="st5" d="M249.9,294.7l-1.9-4.6l3.5,1.3L249.9,294.7z"/>
<path class="st12" d="M419.5,225.4l-1.8-4.4l3.3,1.2L419.5,225.4z"/>
<path class="st12" d="M451,373.2l-1.7-4.4l3.2,1.3L451,373.2z"/>
<path class="st12" d="M355.9,337.6l3.1-3.9l0.6,3.6L355.9,337.6z"/>
<path class="st12" d="M101.6,347.2l3.1-3.9l0.6,3.6L101.6,347.2z"/>
<path class="st12" d="M420.3,294.7l0.3-2l1,1.2L420.3,294.7z"/>
<path class="st12" d="M345.5,257.7l0.3-2.1l1,1.2L345.5,257.7z"/>
<path class="st12" d="M383.4,298l0.3-2l1,1.2L383.4,298z"/>
<path class="st12" d="M395.8,393.3l0.3-2l1,1.2L395.8,393.3z"/>
<path class="st12" d="M375.3,221l0.3-2.1l1,1.2L375.3,221z"/>
<path class="st12" d="M294.1,298.8l0.3-2.1l1,1.2L294.1,298.8z"/>
<path class="st12" d="M301.9,221l0.3-2.1l1,1.2L301.9,221z"/>
<path class="st12" d="M190.6,281.8l0.3-2.1l1,1.2L190.6,281.8z"/>
<path class="st12" d="M144,325.4l0.3-2l1,1.2L144,325.4z"/>
<path class="st12" d="M77.5,233l0.3-2l1,1.2L77.5,233z"/>
<path class="st12" d="M153.9,400.6l-1.9-4.6l3.5,1.3L153.9,400.6z"/>
<path class="st12" d="M209,369.2l-1.9-4.6l3.5,1.3L209,369.2z"/>
<path class="st12" d="M193.5,414.9l0.3-2.1l1,1.2L193.5,414.9z"/>
<g>
	<path class="st13" d="M497.9,431.5c-1,0-1.9-0.4-2.7-1.1c-0.7-0.8-1.1-1.7-1.1-2.7c0-0.7,0.1-1.3,0.2-1.6l42.3-115.6
		c0.4-1.4,1.1-2.6,2.3-3.6c1.2-1,2.8-1.4,4.7-1.4h26.6c1.9,0,3.5,0.5,4.7,1.4c1.2,1,2,2.2,2.3,3.6l42.1,115.6l0.4,1.6
		c0,1-0.4,1.9-1.3,2.7c-0.7,0.7-1.6,1.1-2.7,1.1h-22.1c-2.9,0-4.8-1.3-5.8-3.8l-7-18.4h-48.1l-6.8,18.4c-1,2.5-2.9,3.8-5.9,3.8
		H497.9z M573.7,383.5l-16.7-47.5l-16.7,47.5H573.7z M702.2,431.5c-1.2,0-2.3-0.4-3.2-1.3c-0.8-1-1.3-2-1.3-3.2v-38.7l-41.8-77
		c-0.4-1.1-0.5-1.7-0.5-2c0-1,0.4-1.8,1.1-2.5c0.8-0.8,1.8-1.3,2.9-1.3h22.5c2.4,0,4.5,1.3,6.3,3.8l25.7,46.4l25.9-46.4
		c1.4-2.5,3.5-3.8,6.3-3.8h22.5c1.1,0,2,0.4,2.7,1.3c0.7,0.7,1.1,1.6,1.1,2.5c0,0.6-0.1,1.3-0.4,2l-41.8,77V427
		c0,1.3-0.5,2.4-1.4,3.2c-0.8,0.8-1.9,1.3-3.2,1.3H702.2z M838.2,431.5c-1.2,0-2.3-0.4-3.2-1.3c-0.8-1-1.3-2-1.3-3.2V310
		c0-1.3,0.4-2.4,1.3-3.2c1-0.8,2-1.3,3.2-1.3h23.8c1.3,0,2.4,0.4,3.2,1.3c0.8,0.8,1.3,1.9,1.3,3.2v94.3H921c1.3,0,2.4,0.5,3.2,1.4
		c0.8,0.8,1.3,1.9,1.3,3.2v18c0,1.2-0.4,2.3-1.3,3.2c-0.8,0.8-1.9,1.3-3.2,1.3H838.2z M979.8,431.5c-1,0-1.9-0.4-2.7-1.1
		c-0.7-0.8-1.1-1.7-1.1-2.7c0-0.7,0.1-1.3,0.2-1.6l42.3-115.6c0.4-1.4,1.1-2.6,2.3-3.6c1.2-1,2.8-1.4,4.7-1.4h26.6
		c1.9,0,3.5,0.5,4.7,1.4c1.2,1,2,2.2,2.3,3.6l42.1,115.6l0.4,1.6c0,1-0.4,1.9-1.3,2.7c-0.7,0.7-1.6,1.1-2.7,1.1h-22.1
		c-2.9,0-4.8-1.3-5.8-3.8l-7-18.4h-48.1l-6.8,18.4c-1,2.5-2.9,3.8-5.9,3.8H979.8z M1055.6,383.5l-16.7-47.5l-16.7,47.5H1055.6z"/>
</g>
<path class="st14" d="M514.6,564.2c-0.6,2.7-2,5.1-4.1,6.9c-2.1,1.8-4.7,2.9-7.4,3.2c-2.7,0.2-5.5-0.4-7.9-1.8
	c-2.4-1.4-4.2-3.6-5.2-6.1L423,404.4c-0.4-1-1.1-1.8-1.9-2.5c-0.8-0.7-1.8-1.1-2.9-1.3l-166.1-27.3c-3.2-0.5-6.1-2.1-8.4-4.4
	c-2.3-2.3-3.7-5.3-4.2-8.5c-0.4-3.2,0.2-6.4,1.7-9.3c1.5-2.8,4-5.1,6.9-6.5l324-150.6c2.5-1.1,5.2-1.6,7.9-1.3
	c2.7,0.3,5.3,1.4,7.4,3.1c2.1,1.7,3.7,3.9,4.6,6.5c0.9,2.6,1.1,5.3,0.5,7.9l-15.8,71.8c0.3,0.1,0.6,0.2,0.9,0.3l15.9-71.9
	c0.6-2.8,0.4-5.7-0.5-8.5c-1-2.7-2.7-5.1-4.9-6.9c-2.3-1.8-5-2.9-7.9-3.3c-2.9-0.3-5.8,0.1-8.4,1.3L247.8,344
	c-3.1,1.5-5.7,3.9-7.3,6.9c-1.6,3-2.3,6.5-1.8,9.9c0.5,3.4,2,6.5,4.4,9c2.4,2.5,5.5,4.1,8.9,4.6l166.1,27.3c0.9,0.1,1.7,0.5,2.4,1.1
	c0.7,0.6,1.3,1.3,1.6,2.1l66.9,161.9c1,2.5,2.8,4.7,5,6.2c2.3,1.5,5,2.3,7.7,2.3c0.4,0,0.9,0,1.3-0.1c3-0.2,5.8-1.4,8-3.3
	c2.2-1.9,3.8-4.6,4.4-7.5l24.3-110c-0.3-0.1-0.6-0.1-0.9-0.2L514.6,564.2z"/>
</svg>
