<svg id="Camada_1" data-name="Camada 1" xmlns="http://www.w3.org/2000/svg" viewBox="0 0 38 38"><defs><style>.cls-1{fill:#FE8F1C;}</style></defs><title>icon-incorreto</title><g id="Grupo_1324" data-name="Grupo 1324"><path id="Caminho_300" data-name="Caminho 300" class="cls-1" d="M20,1.22a19,19,0,1,0,19,19h0A19,19,0,0,0,20,1.22Zm0,34.44A15.44,15.44,0,1,1,35.44,20.22h0A15.44,15.44,0,0,1,20,35.66Zm0-26.1c-1.36,0-2.39.71-2.39,1.85V21.94c0,1.14,1,1.85,2.39,1.85s2.39-.74,2.39-1.85V11.41c0-1.12-1.06-1.86-2.39-1.86Zm0,16.6a2.37,2.37,0,1,0,2.37,2.37h0A2.37,2.37,0,0,0,20,26.16Z" transform="translate(-1 -1.22)"/></g></svg>
